<?xml version="1.0" encoding="utf-8"?>
<!-- Generator: Adobe Illustrator 16.0.0, SVG Export Plug-In . SVG Version: 6.00 Build 0)  -->
<!DOCTYPE svg PUBLIC "-//W3C//DTD SVG 1.1//EN" "http://www.w3.org/Graphics/SVG/1.1/DTD/svg11.dtd">
<svg version="1.1" id="icons" xmlns="http://www.w3.org/2000/svg" xmlns:xlink="http://www.w3.org/1999/xlink" x="0px" y="0px"
	 width="64px" height="64px" viewBox="0 0 64 64" enable-background="new 0 0 64 64" xml:space="preserve">
<g>
	<path fill="#E6E9ED" d="M48.948,63.257c0.017-0.06,0.044-0.113,0.049-0.177l0.721-9c0.044-0.551-0.367-1.033-0.917-1.077
		c-0.558-0.043-1.033,0.367-1.077,0.917L47.717,54H16.278l-0.006-0.076c-0.044-0.55-0.507-0.954-1.077-0.917
		c-0.551,0.044-0.961,0.526-0.917,1.077l0.721,8.996c0.005,0.063,0.033,0.118,0.049,0.178c0.015,0.053,0.021,0.107,0.044,0.156
		c0.031,0.069,0.078,0.126,0.125,0.186c0.03,0.04,0.053,0.084,0.089,0.119c0.059,0.057,0.13,0.095,0.201,0.136
		c0.038,0.021,0.069,0.053,0.11,0.069C15.734,63.972,15.861,64,15.995,64h0.001l0,0H48l0,0h0.001c0.134,0,0.261-0.028,0.378-0.076
		c0.041-0.018,0.072-0.048,0.111-0.07c0.07-0.04,0.142-0.078,0.2-0.135c0.036-0.035,0.059-0.079,0.09-0.119
		c0.046-0.06,0.093-0.116,0.124-0.186C48.928,63.365,48.934,63.311,48.948,63.257z"/>
	<g>
		<path fill="#CCD1D9" d="M48.801,53.003c-0.558-0.043-1.033,0.367-1.077,0.917L47.717,54h-2.012c0,0.027,0.012,0.052,0.01,0.08
			l-0.721,9c-0.005,0.063-0.032,0.117-0.049,0.177c-0.015,0.054-0.021,0.108-0.044,0.157c-0.031,0.069-0.078,0.126-0.124,0.186
			c-0.031,0.04-0.054,0.084-0.09,0.119c-0.059,0.057-0.13,0.095-0.2,0.135c-0.039,0.022-0.07,0.053-0.111,0.07
			C44.259,63.972,44.132,64,43.998,64H48h0.001c0.134,0,0.261-0.028,0.378-0.076c0.041-0.018,0.072-0.048,0.111-0.07
			c0.07-0.04,0.142-0.078,0.2-0.135c0.036-0.035,0.059-0.079,0.09-0.119c0.046-0.06,0.093-0.116,0.124-0.186
			c0.023-0.049,0.029-0.104,0.044-0.157c0.017-0.06,0.044-0.113,0.049-0.177l0.721-9C49.762,53.529,49.351,53.047,48.801,53.003z"/>
	</g>
	<path fill="#E6E9ED" d="M52.083,11.998c-0.562-0.042-1.032,0.367-1.077,0.917L50.999,13H12.997l-0.007-0.086
		c-0.044-0.55-0.523-0.959-1.077-0.917c-0.55,0.044-0.961,0.526-0.917,1.077l0.721,9.006c0.042,0.523,0.479,0.92,0.996,0.92
		c0.026,0,0.054-0.001,0.081-0.003c0.521-0.042,0.906-0.481,0.907-0.997h36.594c0.001,0.516,0.386,0.955,0.907,0.997
		C51.229,22.999,51.257,23,51.283,23c0.517,0,0.954-0.396,0.996-0.92L53,13.075C53.044,12.524,52.633,12.042,52.083,11.998z"/>
	<g>
		<path fill="#CCD1D9" d="M52.083,11.998c-0.562-0.042-1.032,0.367-1.077,0.917L50.999,13h-2.012c0,0.025,0.011,0.049,0.009,0.075
			L48.282,22h2.013c0.001,0.516,0.386,0.955,0.907,0.997C51.229,22.999,51.257,23,51.283,23c0.517,0,0.954-0.396,0.996-0.92
			L53,13.075C53.044,12.524,52.633,12.042,52.083,11.998z"/>
	</g>
	<path fill="#844747" d="M53.008,0.952c-0.004-0.073-0.033-0.137-0.052-0.205c-0.014-0.052-0.018-0.105-0.039-0.153
		c-0.035-0.078-0.088-0.142-0.14-0.208c-0.027-0.033-0.045-0.072-0.076-0.102c-0.067-0.066-0.148-0.112-0.232-0.157
		c-0.029-0.016-0.054-0.038-0.085-0.051c-0.072-0.029-0.151-0.036-0.231-0.047C52.104,0.021,52.059,0,52.007,0
		c-0.01,0-0.019,0.005-0.028,0.006c-0.007,0-0.013-0.004-0.02-0.003l-40.013,2c-0.057,0.003-0.104,0.028-0.158,0.04
		c-0.071,0.016-0.144,0.023-0.208,0.054c-0.046,0.021-0.081,0.056-0.123,0.083c-0.067,0.043-0.135,0.083-0.188,0.141
		c-0.03,0.032-0.048,0.073-0.073,0.109c-0.05,0.068-0.1,0.135-0.13,0.215c-0.017,0.042-0.017,0.089-0.027,0.133
		c-0.018,0.074-0.045,0.146-0.045,0.225v3.002c0,0.553,0.447,1,1,1s1-0.447,1-1V6h38.014v0.004c0,0.553,0.447,1,1,1s1-0.447,1-1V1
		c0-0.006-0.003-0.012-0.004-0.018C53.003,0.972,53.009,0.963,53.008,0.952z"/>
	<path fill="#FFD2A6" d="M53.018,21.321C52.828,21.116,52.563,21,52.283,21H11.723c-0.279,0-0.545,0.116-0.734,0.321
		s-0.284,0.48-0.263,0.758l2.553,32.004c0.042,0.521,0.476,0.921,0.997,0.921h35.459c0.521,0,0.955-0.4,0.997-0.921l2.549-32.004
		C53.302,21.801,53.207,21.526,53.018,21.321z"/>
	<path fill="#F7C292" d="M53.018,21.321C52.828,21.116,52.563,21,52.283,21h-4.004c0.279,0,0.545,0.116,0.734,0.321
		s0.284,0.479,0.263,0.758l-2.549,32.004c-0.042,0.521-0.476,0.921-0.997,0.921h4.004c0.521,0,0.955-0.4,0.997-0.921l2.549-32.004
		C53.302,21.801,53.207,21.526,53.018,21.321z"/>
	<g>
		<path fill="#F7C292" d="M19.999,49.998c-0.512,0-0.947-0.391-0.995-0.909l-2.002-21.996c-0.05-0.55,0.355-1.037,0.905-1.087
			c0.557-0.052,1.037,0.355,1.087,0.905l2.002,21.996c0.05,0.55-0.355,1.037-0.905,1.087C20.06,49.997,20.029,49.998,19.999,49.998z
			"/>
	</g>
	<g>
		<path fill="#F7C292" d="M25.999,49.998c-0.531,0-0.974-0.418-0.998-0.954L24,27.048c-0.025-0.552,0.401-1.02,0.953-1.045
			c0.549-0.042,1.02,0.401,1.045,0.953l1.001,21.996c0.025,0.552-0.401,1.02-0.953,1.045C26.03,49.998,26.015,49.998,25.999,49.998z
			"/>
	</g>
	<g>
		<path fill="#F7C292" d="M32,49.998c-0.553,0-1-0.447-1-1V27.002c0-0.553,0.447-1,1-1s1,0.447,1,1v21.996
			C33,49.551,32.553,49.998,32,49.998z"/>
	</g>
	<g>
		<path fill="#F7C292" d="M38.001,49.998c-0.016,0-0.031,0-0.047-0.001c-0.552-0.025-0.979-0.493-0.953-1.045l1.001-21.996
			c0.024-0.552,0.492-0.991,1.045-0.953c0.552,0.025,0.979,0.493,0.953,1.045l-1.001,21.996
			C38.975,49.58,38.532,49.998,38.001,49.998z"/>
	</g>
	<g>
		<path fill="#F7C292" d="M44.001,49.998c-0.03,0-0.061-0.001-0.092-0.004c-0.55-0.05-0.955-0.537-0.905-1.087l2.002-21.996
			c0.051-0.55,0.521-0.959,1.087-0.905c0.55,0.05,0.955,0.537,0.905,1.087l-2.002,21.996C44.948,49.607,44.513,49.998,44.001,49.998
			z"/>
	</g>
	<g>
		<path fill="#773E3E" d="M10.993,6.004c0,0.553,0.447,1,1,1s1-0.447,1-1V6h-2V6.004z"/>
		<path fill="#773E3E" d="M53.008,0.952c-0.004-0.073-0.033-0.137-0.052-0.205c-0.014-0.052-0.018-0.105-0.039-0.153
			c-0.035-0.078-0.088-0.142-0.14-0.208c-0.027-0.033-0.045-0.072-0.076-0.102c-0.067-0.066-0.148-0.112-0.232-0.157
			c-0.029-0.016-0.054-0.038-0.085-0.051c-0.072-0.029-0.151-0.036-0.231-0.047C52.104,0.021,52.059,0,52.007,0
			c-0.01,0-0.019,0.005-0.028,0.006c-0.007,0-0.013-0.004-0.02-0.003l-3.425,0.171c0.058,0.033,0.116,0.063,0.163,0.11
			c0.031,0.029,0.049,0.068,0.076,0.102c0.052,0.066,0.104,0.13,0.14,0.208c0.021,0.048,0.025,0.102,0.039,0.153
			C48.971,0.815,49,0.879,49.004,0.952c0.001,0.011-0.005,0.02-0.005,0.03C49,0.988,49.003,0.994,49.003,1v5h2.004v0.004
			c0,0.553,0.447,1,1,1s1-0.447,1-1V1c0-0.006-0.003-0.012-0.004-0.018C53.003,0.972,53.009,0.963,53.008,0.952z"/>
	</g>
	<path fill="#965353" d="M53.007,5.004H10.993c-1.103,0-2,0.897-2,2v5c0,1.103,0.897,2,2,2h42.014c1.103,0,2-0.897,2-2v-5
		C55.007,5.901,54.109,5.004,53.007,5.004z"/>
	<path fill="#844747" d="M53.007,5.004h-4.004c1.103,0,2,0.897,2,2v5c0,1.103-0.897,2-2,2h4.004c1.103,0,2-0.897,2-2v-5
		C55.007,5.901,54.109,5.004,53.007,5.004z"/>
</g>
</svg>
